<svg xmlns="http://www.w3.org/2000/svg" xmlns:xlink="http://www.w3.org/1999/xlink" version="1.1" id="Capa_1" viewBox="0 0 148 82">
<g>
	<g>
		<path class="st0" d="M140.3,2v14.5c-4.4-4.2-10.4-6.8-17-6.8c-13.7,0-24.7,11.1-24.7,24.7c0,13.7,11.1,24.7,24.7,24.7    S148,48,148,34.4h0V2H140.3z M123.3,51.4c-9.4,0-17-7.6-17-17c0-9.4,7.6-17,17-17s17,7.6,17,17C140.3,43.8,132.7,51.4,123.3,51.4z    "/>
		<path class="st0" d="M73.9,17.4c6.8,0,12.7,4,15.4,9.8h8.3C94.5,17.1,85.1,9.7,73.9,9.7c-13.4,0-24.3,10.6-24.7,23.9h-7.6    c0,0.3,0,0.5,0,0.8c0,9.4-7.6,17-17,17s-17-7.6-17-17c0,0,0-0.1,0-0.1h0V16.4h41.5V8.7H7.7V2H0v32.4C0,48,11.1,59.1,24.7,59.1    c12.9,0,23.4-9.8,24.6-22.4c1.2,12.5,11.7,22.4,24.6,22.4c11.6,0,21.3-8,24-18.8h-8.1c-2.4,6.4-8.6,11-15.9,11    c-8.3,0-15.2-6-16.7-13.9h40.7v-7.7H57.6C59.6,22.6,66.1,17.4,73.9,17.4z"/>
	</g>
	<g class="st1">
		<path class="st0" d="M5.3,71.2h-3v-1.1h7.2v1.1h-3v8.7H5.3V71.2z"/>
		<path class="st0" d="M15.5,75.3h-3.8v3.5h4.2v1.1h-5.5v-9.8h5.3v1.1h-4v3.1h3.8V75.3z"/>
		<path class="st0" d="M24.2,79.5c-0.5,0.2-1.4,0.5-2.6,0.5c-2.8,0-4.8-1.7-4.8-4.9c0-3.1,2.1-5.1,5.1-5.1c1.2,0,2,0.3,2.3,0.4    l-0.3,1c-0.5-0.2-1.2-0.4-2-0.4c-2.3,0-3.8,1.5-3.8,4c0,2.4,1.4,3.9,3.8,3.9c0.8,0,1.5-0.2,2.1-0.4L24.2,79.5z"/>
		<path class="st0" d="M25.6,79.9v-9.8h1.4l3.1,4.9c0.7,1.1,1.3,2.2,1.8,3.2l0,0c-0.1-1.3-0.1-2.5-0.1-4v-4.1h1.2v9.8h-1.3l-3.1-5    c-0.7-1.1-1.3-2.2-1.8-3.3l0,0c0.1,1.2,0.1,2.4,0.1,4v4.2H25.6z"/>
		<path class="st0" d="M43.2,74.9c0,3.4-2,5.1-4.5,5.1c-2.6,0-4.4-2-4.4-5c0-3.1,1.9-5.1,4.5-5.1C41.5,69.9,43.2,72,43.2,74.9z     M35.7,75c0,2.1,1.1,4,3.1,4c2,0,3.1-1.8,3.1-4.1c0-1.9-1-4-3.1-4C36.7,71,35.7,72.9,35.7,75z"/>
		<path class="st0" d="M44.7,70.1h1.3v8.7h4.2v1.1h-5.4V70.1z"/>
		<path class="st0" d="M59.1,74.9c0,3.4-2,5.1-4.5,5.1c-2.6,0-4.4-2-4.4-5c0-3.1,1.9-5.1,4.5-5.1C57.4,69.9,59.1,72,59.1,74.9z     M51.5,75c0,2.1,1.1,4,3.1,4c2,0,3.1-1.8,3.1-4.1c0-1.9-1-4-3.1-4C52.6,71,51.5,72.9,51.5,75z"/>
		<path class="st0" d="M68,79.4c-0.6,0.2-1.7,0.5-3,0.5c-1.5,0-2.7-0.4-3.6-1.3C60.5,77.9,60,76.5,60,75c0-2.9,2-5,5.3-5    c1.1,0,2,0.2,2.4,0.4l-0.3,1c-0.5-0.2-1.2-0.4-2.2-0.4c-2.4,0-3.9,1.5-3.9,3.9c0,2.5,1.5,3.9,3.8,3.9c0.8,0,1.4-0.1,1.7-0.3v-2.9    h-2v-1H68V79.4z"/>
		<path class="st0" d="M72.5,67.9l-1.9,1.7h-1l1.3-1.7H72.5z M71,70.1v9.8h-1.3v-9.8H71z"/>
		<path class="st0" d="M74.6,76.8l-1,3.1h-1.3l3.3-9.8h1.5l3.3,9.8h-1.3l-1-3.1H74.6z M77.8,75.8l-1-2.8c-0.2-0.6-0.4-1.2-0.5-1.8h0    c-0.1,0.6-0.3,1.2-0.5,1.8l-1,2.8H77.8z"/>
		<path class="st0" d="M89.6,75.3h-3.8v3.5H90v1.1h-5.5v-9.8h5.3v1.1h-4v3.1h3.8V75.3z"/>
		<path class="st0" d="M91.5,70.2c0.8-0.1,1.7-0.2,2.7-0.2c1.8,0,3.1,0.4,4,1.2c0.9,0.8,1.4,1.9,1.4,3.5c0,1.6-0.5,2.9-1.4,3.8    c-0.9,0.9-2.4,1.4-4.3,1.4c-0.9,0-1.7,0-2.3-0.1V70.2z M92.7,78.9c0.3,0.1,0.8,0.1,1.3,0.1c2.7,0,4.2-1.5,4.2-4.1    c0-2.3-1.3-3.8-4-3.8c-0.7,0-1.1,0.1-1.5,0.1V78.9z"/>
		<path class="st0" d="M102.2,70.1v9.8h-1.3v-9.8H102.2z"/>
		<path class="st0" d="M106.1,71.2h-3v-1.1h7.2v1.1h-3v8.7h-1.3V71.2z"/>
		<path class="st0" d="M119.2,74.9c0,3.4-2,5.1-4.5,5.1c-2.6,0-4.4-2-4.4-5c0-3.1,1.9-5.1,4.5-5.1C117.4,69.9,119.2,72,119.2,74.9z     M111.6,75c0,2.1,1.1,4,3.1,4c2,0,3.1-1.8,3.1-4.1c0-1.9-1-4-3.1-4C112.6,71,111.6,72.9,111.6,75z"/>
		<path class="st0" d="M120.6,70.2c0.6-0.1,1.6-0.2,2.4-0.2c1.3,0,2.2,0.2,2.8,0.8c0.5,0.4,0.8,1.1,0.8,1.9c0,1.3-0.8,2.1-1.8,2.5v0    c0.8,0.3,1.2,1,1.4,2c0.3,1.4,0.6,2.3,0.8,2.7h-1.3c-0.2-0.3-0.4-1.1-0.7-2.3c-0.3-1.3-0.8-1.9-2-1.9h-1.2v4.2h-1.3V70.2z     M121.9,74.7h1.3c1.3,0,2.2-0.7,2.2-1.9c0-1.3-0.9-1.8-2.2-1.8c-0.6,0-1,0.1-1.2,0.1V74.7z"/>
		<path class="st0" d="M129.5,70.1v9.8h-1.3v-9.8H129.5z"/>
		<path class="st0" d="M133.1,76.8l-1,3.1h-1.3l3.3-9.8h1.5l3.3,9.8h-1.3l-1-3.1H133.1z M136.3,75.8l-1-2.8    c-0.2-0.6-0.4-1.2-0.5-1.8h0c-0.1,0.6-0.3,1.2-0.5,1.8l-1,2.8H136.3z"/>
		<path class="st0" d="M140.2,70.1h1.3v8.7h4.2v1.1h-5.4V70.1z"/>
	</g>
</g>
</svg>